<svg width="21" height="19" viewBox="0 0 21 19" fill="none" xmlns="http://www.w3.org/2000/svg">
<path fill-rule="evenodd" clip-rule="evenodd" d="M18.75 2H20.75V0H17.75C17.4848 0 17.2304 0.105357 17.0429 0.292893C16.8554 0.48043 16.75 0.734784 16.75 1V2H1.75001C1.61026 2 1.47205 2.02929 1.34431 2.08599C1.21657 2.14269 1.10214 2.22553 1.00838 2.32917C0.914632 2.43282 0.843646 2.55497 0.800005 2.68773C0.756364 2.8205 0.741037 2.96094 0.755013 3.1L1.75501 13.1C1.7798 13.3467 1.89533 13.5753 2.07918 13.7416C2.26304 13.9079 2.50211 14 2.75001 14H17.75C18.0152 14 18.2696 13.8946 18.4571 13.7071C18.6447 13.5196 18.75 13.2652 18.75 13V2ZM16.75 19C16.2196 19 15.7109 18.7893 15.3358 18.4142C14.9607 18.0391 14.75 17.5304 14.75 17C14.75 16.4696 14.9607 15.9609 15.3358 15.5858C15.7109 15.2107 16.2196 15 16.75 15C17.2804 15 17.7892 15.2107 18.1642 15.5858C18.5393 15.9609 18.75 16.4696 18.75 17C18.75 17.5304 18.5393 18.0391 18.1642 18.4142C17.7892 18.7893 17.2804 19 16.75 19ZM3.75001 19C3.21958 19 2.71087 18.7893 2.3358 18.4142C1.96073 18.0391 1.75001 17.5304 1.75001 17C1.75001 16.4696 1.96073 15.9609 2.3358 15.5858C2.71087 15.2107 3.21958 15 3.75001 15C4.28045 15 4.78915 15.2107 5.16423 15.5858C5.5393 15.9609 5.75001 16.4696 5.75001 17C5.75001 17.5304 5.5393 18.0391 5.16423 18.4142C4.78915 18.7893 4.28045 19 3.75001 19ZM16.75 12V4H2.85501L3.65501 12H16.75Z" fill="#424750"/>
</svg>
